<svg xmlns="http://www.w3.org/2000/svg" width="40" height="40" viewBox="0 0 40 40"><g transform="translate(-168 -462)"><rect width="40" height="40" transform="translate(168 462)" fill="rgba(0,0,0,0)"/><path d="M28.8,36a3.6,3.6,0,1,1,3.6-3.6A3.6,3.6,0,0,1,28.8,36Zm-18-.018A3.583,3.583,0,1,1,14.4,32.4,3.595,3.595,0,0,1,10.8,35.983ZM32.395,27H10.8a3.558,3.558,0,0,1-3.085-1.757,3.6,3.6,0,0,1-.063-3.589l2.43-4.392L3.6,3.6H0V0H5.884L7.576,3.6H34.212a1.794,1.794,0,0,1,1.566,2.665L29.335,17.946a3.588,3.588,0,0,1-3.15,1.855H12.778L10.8,23.4h21.6V27ZM9.286,7.2h0l4.265,9H26.185l4.968-9Z" transform="translate(169 464)" fill="#2171ea"/></g></svg>