<svg xmlns="http://www.w3.org/2000/svg" xmlns:xlink="http://www.w3.org/1999/xlink" width="56.999" height="56.978" viewBox="0 0 56.999 56.978"><defs><clipPath id="a"><path d="M1.043,55.931a3.572,3.572,0,0,1-1.029-2.84l1.35-14.87A7.05,7.05,0,0,1,3.4,33.892L35.445,1.809a7.036,7.036,0,0,1,9.677.247l9.754,9.763,0,0a6.875,6.875,0,0,1,.244,9.68L23.068,53.585a7.018,7.018,0,0,1-4.326,2.025L3.887,56.965c-.106.01-.215.013-.324.013A3.567,3.567,0,0,1,1.043,55.931Z" transform="translate(0 0)" fill="#2171ea"/></clipPath></defs><g transform="translate(0 0)"><path d="M1.043,55.931a3.572,3.572,0,0,1-1.029-2.84l1.35-14.87A7.05,7.05,0,0,1,3.4,33.892L35.445,1.809a7.036,7.036,0,0,1,9.677.247l9.754,9.763,0,0a6.875,6.875,0,0,1,.244,9.68L23.068,53.585a7.018,7.018,0,0,1-4.326,2.025L3.887,56.965c-.106.01-.215.013-.324.013A3.567,3.567,0,0,1,1.043,55.931Z" transform="translate(0 0)" fill="#2171ea"/></g></svg>