<svg xmlns="http://www.w3.org/2000/svg" width="48" height="48" viewBox="0 0 48 48"><path d="M24,48A24.006,24.006,0,0,1,14.658,1.886,24.006,24.006,0,0,1,33.342,46.114,23.849,23.849,0,0,1,24,48Zm8.971-28.521V33.23h1.5a1.489,1.489,0,0,0,1.5-1.476V16.826a1.478,1.478,0,0,0-.257-1.184,1.511,1.511,0,0,0-1.222-.632,1.458,1.458,0,0,0-.875.29l-9.629,7.039-9.564-6.953a1.552,1.552,0,0,0-2.139.32,1.394,1.394,0,0,0-.267.677,1.408,1.408,0,0,0-.011.179v15.17a1.482,1.482,0,0,0,1.5,1.5H15V19.511l8.966,6.508L32.97,19.48Z" fill="#fff"/></svg>