<svg xmlns="http://www.w3.org/2000/svg" width="48" height="48" viewBox="0 0 48 48"><path d="M24,48A24.006,24.006,0,0,1,14.658,1.886,24.006,24.006,0,0,1,33.342,46.114,23.849,23.849,0,0,1,24,48Zm0-36.8-.555,0c-2.938,0-3.4.016-4.721.076a9.463,9.463,0,0,0-3.107.595,6.544,6.544,0,0,0-3.745,3.743,9.4,9.4,0,0,0-.595,3.107c-.063,1.4-.077,1.857-.077,5.278s.015,3.88.077,5.277a9.5,9.5,0,0,0,.595,3.107,6.551,6.551,0,0,0,3.743,3.745,9.476,9.476,0,0,0,3.107.594c1.378.063,1.834.077,5.278.077s3.9-.015,5.277-.077a9.481,9.481,0,0,0,3.109-.594,6.558,6.558,0,0,0,3.743-3.745,9.544,9.544,0,0,0,.595-3.107c.063-1.4.077-1.857.077-5.277s-.015-3.881-.077-5.278a9.531,9.531,0,0,0-.595-3.106,6.544,6.544,0,0,0-3.744-3.744,9.5,9.5,0,0,0-3.109-.595C27.9,11.214,27.442,11.2,24,11.2Z" fill="#fff"/><path d="M10.493,20.984c-3.406,0-3.812-.013-5.172-.075a7.1,7.1,0,0,1-2.377-.442,3.97,3.97,0,0,1-1.471-.958A3.954,3.954,0,0,1,.515,18.04a7.065,7.065,0,0,1-.441-2.376C.013,14.32,0,13.916,0,10.49S.013,6.662.074,5.32A7.081,7.081,0,0,1,.515,2.943a3.947,3.947,0,0,1,.958-1.471A3.983,3.983,0,0,1,2.944.513,7.1,7.1,0,0,1,5.321.072C6.515.018,6.965,0,9.346,0c.11,0,.228,0,.333,0h.815c3.445,0,3.846.013,5.172.073a7.084,7.084,0,0,1,2.377.441,3.954,3.954,0,0,1,1.471.958,3.983,3.983,0,0,1,.958,1.472,7.119,7.119,0,0,1,.441,2.376c.061,1.344.074,1.747.074,5.171s-.013,3.828-.074,5.171a7.118,7.118,0,0,1-.441,2.376,4.245,4.245,0,0,1-2.429,2.427,7.048,7.048,0,0,1-2.377.442C14.306,20.971,13.9,20.984,10.493,20.984Zm0-17.061A6.573,6.573,0,1,0,17.066,10.5,6.581,6.581,0,0,0,10.493,3.923Zm6.833-1.8,0,0a1.535,1.535,0,1,0,1.539,1.534A1.536,1.536,0,0,0,17.323,2.129Z" transform="translate(13.508 13.503)" fill="#fff"/><path d="M4.267,0A4.267,4.267,0,1,1,0,4.267,4.267,4.267,0,0,1,4.267,0Z" transform="translate(19.734 19.733)" fill="#fff"/></svg>