<svg xmlns="http://www.w3.org/2000/svg" width="48" height="48" viewBox="0 0 48 48"><path d="M24,48A24.006,24.006,0,0,1,14.658,1.886,24.006,24.006,0,0,1,33.342,46.114,23.849,23.849,0,0,1,24,48Zm4.38-24.217c1.257,0,2.756.641,2.756,3.694V36.22h5.439V26.85a7.943,7.943,0,0,0-1.789-5.56,5.891,5.891,0,0,0-4.473-1.8,5.62,5.62,0,0,0-3.263.932,6.1,6.1,0,0,0-1.639,1.767V19.878h-5.44c.071,1.516,0,16.193,0,16.341h5.44V27.094a3.6,3.6,0,0,1,.179-1.326,3.387,3.387,0,0,1,.979-1.359A2.8,2.8,0,0,1,28.381,23.783ZM11.522,19.877V36.22h5.439V19.877ZM14.277,12a2.832,2.832,0,1,0-.07,5.648h.035a3.171,3.171,0,0,0,2.25-.824,2.735,2.735,0,0,0,.827-2A2.821,2.821,0,0,0,14.277,12Z" fill="#fff"/></svg>