<svg xmlns="http://www.w3.org/2000/svg" xmlns:xlink="http://www.w3.org/1999/xlink" width="60" height="60" viewBox="0 0 60 60"><defs><clipPath id="a"><path d="M48.75,22.75H29.25V3.25a3.25,3.25,0,0,0-6.5,0v19.5H3.25a3.25,3.25,0,0,0,0,6.5h19.5v19.5a3.25,3.25,0,0,0,6.5,0V29.25h19.5a3.25,3.25,0,0,0,0-6.5" fill="#2171ea"/></clipPath></defs><g transform="translate(4 4)"><path d="M48.75,22.75H29.25V3.25a3.25,3.25,0,0,0-6.5,0v19.5H3.25a3.25,3.25,0,0,0,0,6.5h19.5v19.5a3.25,3.25,0,0,0,6.5,0V29.25h19.5a3.25,3.25,0,0,0,0-6.5" fill="#2171ea"/></g></svg>