<svg xmlns="http://www.w3.org/2000/svg" width="48" height="48" viewBox="0 0 48 48"><path d="M24,48A24.006,24.006,0,0,1,14.658,1.886,24.006,24.006,0,0,1,33.342,46.114,23.849,23.849,0,0,1,24,48ZM12.769,21.223c-.026,0-.042,0-.048.014a6.038,6.038,0,0,0,.6,2.271,5.413,5.413,0,0,0,2.3,2.17l.823.39-.974.016c-.6,0-.82.008-.887.1-.043.056-.022.146.015.276a5.067,5.067,0,0,0,3.139,2.779l1.04.356-.906.542a9.518,9.518,0,0,1-4.5,1.255A5.087,5.087,0,0,0,12,31.523a12.669,12.669,0,0,0,3.24,1.491,13.573,13.573,0,0,0,4,.585,13.986,13.986,0,0,0,7.013-1.839,14.665,14.665,0,0,0,5.59-6.576A17.561,17.561,0,0,0,32.984,20.1c0-.785.056-.886.991-1.813a11.068,11.068,0,0,0,1.175-1.305c.062-.119.1-.193.078-.226-.008-.014-.026-.02-.055-.02a3.818,3.818,0,0,0-.729.212,4.716,4.716,0,0,1-1.177.327c-.075,0-.119-.017-.134-.053-.036-.083.083-.266.388-.6a4.95,4.95,0,0,0,1.142-1.814c0-.01-.009-.015-.028-.015a1.666,1.666,0,0,0-.509.2,9.381,9.381,0,0,1-1.478.576l-.906.288L30.92,15.3a6.782,6.782,0,0,0-1.426-.746,5.239,5.239,0,0,0-1.342-.158,5.091,5.091,0,0,0-1.6.227,4.841,4.841,0,0,0-3.273,4.881l.05.831-.84-.1A13.691,13.691,0,0,1,14.5,16.3l-1.108-1.1-.286.814a4.905,4.905,0,0,0,1.041,5.017c.3.322.429.51.393.591-.014.033-.055.05-.124.05a3.4,3.4,0,0,1-.908-.251A3.412,3.412,0,0,0,12.769,21.223Z" fill="#fff"/></svg>