<svg xmlns="http://www.w3.org/2000/svg" width="94" height="94" viewBox="0 0 94 94"><g transform="translate(-248 -62)"><g transform="translate(248 62)"><rect width="94" height="94" fill="rgba(0,0,0,0)"/><path d="M68.5,74.292H17.615A7.8,7.8,0,0,1,10.1,68.578L.155,32.292A3.333,3.333,0,0,1,0,31.235a3.918,3.918,0,0,1,3.914-3.914H22.663L39.809,1.681A3.838,3.838,0,0,1,43.057,0a3.886,3.886,0,0,1,3.248,1.642L63.452,27.321H82.2a3.918,3.918,0,0,1,3.914,3.914L86,32.292,76.053,68.578A7.892,7.892,0,0,1,68.5,74.292ZM9.04,35.148h0L17.653,66.5,68.5,66.464l8.61-31.316H9.04ZM43.057,10.879,32.1,27.321h21.92Zm0,47.757a7.828,7.828,0,1,1,7.828-7.828A7.837,7.837,0,0,1,43.057,58.636Z" transform="translate(3.916 7.908)" fill="#2171ea"/></g></g></svg>