<svg xmlns="http://www.w3.org/2000/svg" xmlns:xlink="http://www.w3.org/1999/xlink" width="973" height="611" viewBox="0 0 973 611"><defs><linearGradient id="a" x1="-0.453" y1="0.5" x2="0.5" y2="0.5" gradientUnits="objectBoundingBox"><stop offset="0" stop-color="#fff"/><stop offset="1" stop-color="#2171ea"/></linearGradient><linearGradient id="b" x1="-0.453" y1="0.5" x2="0.65" y2="0.5" gradientUnits="objectBoundingBox"><stop offset="0" stop-color="#f8f8f8"/><stop offset="1" stop-color="#2171ea"/></linearGradient></defs><g transform="translate(-173 -295)"><g transform="translate(206 89)"><g transform="translate(267.843 304)"><rect width="404" height="404" transform="translate(0.157)" fill="rgba(0,0,0,0)"/><path d="M285.9,269a50.5,50.5,0,0,1-50.448-50.446H134.544a50.456,50.456,0,0,1-100.912,0H0V33.638A33.671,33.671,0,0,1,33.632,0H269.088V67.254h50.448L370,134.509v84.045H336.352A50.511,50.511,0,0,1,285.9,269Zm0-67.25a16.817,16.817,0,1,0,16.816,16.8A16.829,16.829,0,0,0,285.9,201.75Zm-201.808,0a16.817,16.817,0,1,0,16.816,16.8A16.829,16.829,0,0,0,84.1,201.75Zm0-33.621a49.773,49.773,0,0,1,37.326,16.808H235.456V33.638H33.632v151.3H46.755A49.806,49.806,0,0,1,84.1,168.129ZM269.088,92.477v42.031H344.1L311.136,92.477Z" transform="translate(17.157 68)" fill="#2171ea"/></g><g transform="translate(122 415.62)"><rect width="150" height="34" transform="translate(46 46.38)" fill="url(#a)"/><rect width="200" height="34" transform="translate(-4 88.38)" fill="url(#b)"/><rect width="100" height="34" transform="translate(95 4.38)" fill="url(#a)"/></g></g><g transform="translate(-267 -2460)"><rect width="200" height="200" transform="translate(440 3166)" fill="rgba(0,0,0,0)"/><path d="M130.668,172H16.332A16.374,16.374,0,0,1,0,155.62V57.333A16.373,16.373,0,0,1,16.332,40.955H32.671a40.833,40.833,0,1,1,81.666,0h16.331A16.373,16.373,0,0,1,147,57.333V155.62A16.374,16.374,0,0,1,130.668,172ZM16.332,57.342V155.62H130.668V57.342ZM73.5,16.377A24.566,24.566,0,0,0,49,40.955H98A24.566,24.566,0,0,0,73.5,16.377Zm0,90.1A40.938,40.938,0,0,1,32.671,65.521H49a24.5,24.5,0,1,0,48.995,0h16.339A40.942,40.942,0,0,1,73.5,106.476Z" transform="translate(466 3175)" fill="#2171ea"/></g><g transform="translate(339 -2915)"><rect width="231" height="231" transform="translate(576 3210)" fill="rgba(0,0,0,0)"/><path d="M67.5,192l-.007-.007A439.323,439.323,0,0,1,33.75,148.5C18.353,125.785,0,93.238,0,67.2A67.3,67.3,0,0,1,67.5,0,67.3,67.3,0,0,1,135,67.2c0,26.035-18.353,58.583-33.75,81.3a439.649,439.649,0,0,1-33.743,43.493Zm0-172.8a48.159,48.159,0,0,0-48.208,48c0,29.993,33.713,76.322,48.208,94.847,14.487-18.3,48.217-64.166,48.217-94.847A48.164,48.164,0,0,0,67.5,19.2Zm0,72A24,24,0,1,1,91.609,67.209,24.072,24.072,0,0,1,67.5,91.2Z" transform="translate(625 3229)" fill="#2171ea"/></g><g transform="translate(-167.481 -2027)"><rect width="91" height="91" transform="translate(746.481 2812)" fill="rgba(0,0,0,0)"/><path d="M61.093,46A23,23,0,1,1,84,23,22.981,22.981,0,0,1,61.093,46Zm0-38.334A15.334,15.334,0,1,0,76.364,23,15.323,15.323,0,0,0,61.093,7.666ZM15.272,38.334A15.334,15.334,0,1,1,30.546,23,15.319,15.319,0,0,1,15.272,38.334Z" transform="translate(750.481 2835)" fill="#2171ea"/></g><g transform="translate(131 173)"><g transform="translate(226 232)" fill="none" stroke="#2171ea" stroke-width="5"><circle cx="27" cy="27" r="27" stroke="none"/><circle cx="27" cy="27" r="24.5" fill="none"/></g><line y2="28.5" transform="translate(253.5 220)" fill="none" stroke="#2171ea" stroke-width="5"/><line y2="28.5" transform="translate(253.5 297.5) rotate(180)" fill="none" stroke="#2171ea" stroke-width="5"/><line y2="28.5" transform="translate(292.75 259.25) rotate(90)" fill="none" stroke="#2171ea" stroke-width="5"/><line y2="28.5" transform="translate(243.75 259.25) rotate(90)" fill="none" stroke="#2171ea" stroke-width="5"/></g></g></svg>